<svg width="11" height="13" viewBox="0 0 11 13" fill="none" xmlns="http://www.w3.org/2000/svg">
<path d="M1.65132 5.83334H9.34932C9.92398 5.83334 10.2293 5.15335 9.84732 4.72335L5.99865 0.393345C5.93622 0.322882 5.85955 0.266468 5.7737 0.227833C5.68786 0.189198 5.59479 0.16922 5.50065 0.16922C5.40651 0.16922 5.31344 0.189198 5.22759 0.227833C5.14175 0.266468 5.06508 0.322882 5.00265 0.393345L1.15265 4.72335C0.77065 5.15335 1.07598 5.83334 1.65132 5.83334ZM5.00198 12.606C5.06441 12.6765 5.14108 12.7329 5.22693 12.7715C5.31277 12.8102 5.40584 12.8301 5.49998 12.8301C5.59412 12.8301 5.68719 12.8102 5.77304 12.7715C5.85888 12.7329 5.93555 12.6765 5.99798 12.606L9.84665 8.27601C10.2293 7.84668 9.92398 7.16668 9.34865 7.16668H1.65132C1.07665 7.16668 0.771316 7.84668 1.15332 8.27668L5.00198 12.606Z" fill="#9E9E9E"/>
</svg>
